<svg xmlns="http://www.w3.org/2000/svg" width="164.637" height="162.212" viewBox="0 0 164.637 162.212">
  <g id="Group_50" data-name="Group 50" transform="translate(-224.98 -259.919)">
    <circle id="Ellipse_1" data-name="Ellipse 1" cx="75" cy="75" r="75" transform="translate(224.98 269.841)" fill="#d8e9ff"/>
    <path id="Path_2" data-name="Path 2" d="M388.752,291.24A73.147,73.147,0,1,0,439.333,308.6" transform="translate(-113.722 12.217) rotate(-5)" fill="none" stroke="#272727" stroke-linejoin="round" stroke-miterlimit="10" stroke-width="6"/>
    <g id="Group_1" data-name="Group 1" transform="translate(236.547 331.278) rotate(-5)">
      <path id="Path_34" data-name="Path 34" d="M362.945,355.261a24.128,24.128,0,0,0,3.186.461" transform="translate(-281.19 -290.468)" fill="none" stroke="#272727" stroke-linecap="round" stroke-linejoin="round" stroke-miterlimit="10" stroke-width="6"/>
      <path id="Path_35" data-name="Path 35" d="M355.527,352.831c2.91,1.266,5.489,2.217,7.709,2.933" transform="translate(-287.9 -292.666)" fill="none" stroke="#272727" stroke-linecap="round" stroke-linejoin="round" stroke-miterlimit="10" stroke-width="6"/>
      <path id="Path_36" data-name="Path 36" d="M346.962,348.244c4.045,2.552,7.78,4.634,11.172,6.331" transform="translate(-295.647 -296.815)" fill="none" stroke="#272727" stroke-linecap="round" stroke-linejoin="round" stroke-miterlimit="10" stroke-width="6"/>
      <path id="Path_37" data-name="Path 37" d="M320.018,321.24s8.921,16.068,22.283,28.6a205.811,205.811,0,0,0,22.854,18.721" transform="translate(-320.018 -321.24)" fill="none" stroke="#272727" stroke-linecap="round" stroke-linejoin="round" stroke-miterlimit="10" stroke-width="6"/>
    </g>
    <g id="Group_2" data-name="Group 2" transform="translate(291.264 320.455) rotate(-5)">
      <path id="Path_38" data-name="Path 38" d="M353.086,322.121c-2.632-2.491-3.952-4.038-3.952-4.038" transform="translate(-349.134 -318.083)" fill="none" stroke="#272727" stroke-linecap="round" stroke-linejoin="round" stroke-miterlimit="10" stroke-width="6"/>
      <path id="Path_39" data-name="Path 39" d="M360.474,327.631c-2.272-1.628-4.306-3.2-6.1-4.655" transform="translate(-344.393 -313.657)" fill="none" stroke="#272727" stroke-linecap="round" stroke-linejoin="round" stroke-miterlimit="10" stroke-width="6"/>
      <path id="Path_40" data-name="Path 40" d="M425.306,345.461s-15.394,3.441-36.523-4.178a142.023,142.023,0,0,1-27.941-13.659" transform="translate(-338.543 -309.454)" fill="none" stroke="#272727" stroke-linecap="round" stroke-linejoin="round" stroke-miterlimit="10" stroke-width="6"/>
    </g>
  </g>
</svg>
