<svg xmlns="http://www.w3.org/2000/svg" width="164.637" height="329.821" viewBox="0 0 164.637 329.821">
  <g id="Group_50" data-name="Group 50" transform="translate(-224.98 -92.31)">
    <circle id="Ellipse_1" data-name="Ellipse 1" cx="75" cy="75" r="75" transform="translate(224.98 269.841)" fill="#d8e9ff"/>
    <path id="Path_100" data-name="Path 100" d="M257.812,398.581l-7.381-27.416-3.163-14.235-6.854-22.671-2.636-50.086,34.27-15.817s14.235-24.78,23.725,6.327,2.636,43.232,2.636,43.232l-13.181,11.6V339l10.544,12.078,2.636,20.083-2.636,11.6-14.235,15.817H257.812Z" transform="translate(41 -120)" fill="#fff"/>
    <g id="Layer-5" transform="translate(262.256 137.954) rotate(-5)">
      <path id="Path_1" data-name="Path 1" d="M398.532,307.621c-1.028-1.373-3.131-1.731-4.645-2.489a9.682,9.682,0,0,1-5.06-12.029c1.074-3.226,8.757-3.466,11.448-4.811a31.151,31.151,0,0,0,14.1-14.518c3.222-6.807-1.949-21.949-1.949-21.949s-2.28-5.346-4.156-5.189c-.271.023.157,1-.117,1.338-2.1,2.583-3.664,5.477-5.974,7.965-.209.227-2,2.377-2.24,2.24-.636-.364,1.268-2.832,1.493-3.236.9-1.626,3.181-10.7.665-11.779-.969-.417-1.832,2.2-2.24,2.737-2.021,2.642-4.117,5.338-7.052,6.969-4.041,2.245-8.568,4.634-13.023,5.807-1.967.518-5.175-1.047-6.8.581-.855.853-.215,2.251-.665,3.318a26.8,26.8,0,0,1-4.561,7.633c-1.379,1.484-8.155,5.755-8.214,6.8-.061,1.107,1.1,1.984,1.411,2.986,1.2,3.8,3.361,5.774,6.8,7.8,4.723,2.779,8.806.981,8.047,8.961-.579,6.079-8.45,9.288-11.614,13.77-.887,1.257-5.546,9.66-5.974,9.374-1.988-1.326-2.293-6-3.318-8.047-2.257-4.514-7.9-5.167-8.711-10.867-.642-4.5,2.474-8.536,1.493-13.191-.722-3.43-2.729-6.932-4.148-10.121-.975-2.2-1.032-6.344-1.16-8.793-.827-15.706,7.26-35.422,22.149-42.474,6.664-3.158,13.863-4.293,21.153-5.06,2.725-.288,4.8.712,7.384,1.16,8.875,1.545,13.787,4.43,19.66,11.282,2.293,2.674,5.4,4.714,6.887,8.048,7.886,17.744,7.186,39.473-4.645,55.25-2.659,3.542-11.8,11.417-16.592,10.618-.848-.141-2.005-1.272-2.821-1.659-4.78-2.264-9.185-5.009-7.965-11.117" transform="translate(-342.313 -221.294)" fill="#272727"/>
    </g>
    <path id="Path_2" data-name="Path 2" d="M388.752,291.24A73.147,73.147,0,1,0,439.333,308.6" transform="translate(-113.722 12.217) rotate(-5)" fill="none" stroke="#272727" stroke-linejoin="round" stroke-miterlimit="10" stroke-width="3.5"/>
    <path id="Path_3" data-name="Path 3" d="M374.445,287.775c.846.358-3.784,5.971-4.8,6.127-.889.137-6.163-4.163-6.658-4.74-.232-.27,4.062,1.152,6.658.865C372.74,289.685,373.706,287.463,374.445,287.775Z" transform="translate(-74.182 5.584) rotate(-5)" fill="#272727"/>
    <path id="Path_101" data-name="Path 101" d="M298.965,444.454l10.194,11.953,6.551,1.56s2.808,4.68,4.056-3.432a55.425,55.425,0,0,0,0-15.6s-5.927-8.423-8.423-8.423-9.983,8.423-9.983,8.423Z" transform="translate(41 -120)" fill="#fff"/>
    <path id="Path_102" data-name="Path 102" d="M262.8,403.373h-6.365v5.615l6.365,6.239,10.794,2.184Z" transform="translate(41 -120)" fill="#fff"/>
    <path id="Path_4" data-name="Path 4" d="M368.691,299.724c9.61-1.2,12.1-10.576,17.15-9.818,3.493.524,8.734,5.618,10.972,8.2a29.023,29.023,0,0,1,5.428,9.008c4.34,12.4-6.647,18.085-17.323,13.282-4.064-1.83-8.092-6.2-11.435-9.124C370.655,308.8,363.93,300.319,368.691,299.724Z" transform="translate(-70.361 7.173) rotate(-5)" fill="#272727"/>
    <path id="Path_5" data-name="Path 5" d="M358.587,290.765c-.425-.51-3.474-2.356-4.346-1.685-1.724,1.326,3.459,16.143,4.493,18,5.914,10.646,14.44,19.609,22.336,28.72,3.219,3.714,6.593,10.789,10.878,13.2,2.371,1.333,14.832-2.96,16.615-5.039,3.851-4.495-6.188-13.383-8.492-17.3-3.329-5.66-13.832-19.706-19.872-22.193-2.594-1.068-5.154-.341-7.831-.935C367.11,302.367,361.81,294.633,358.587,290.765Z" transform="translate(-82.274 7.372) rotate(-5)" fill="#272727"/>
    <path id="Path_6" data-name="Path 6" d="M387.113,233.678c2.127,2.049,3.929,6.894,4.14,7.4,2.137,5.123,2.94,12.158,1.383,17.54-3.8,13.128-13.568,19.382-25.482,20.843" transform="translate(-74.681 -39.463) rotate(-5)" fill="none" stroke="#272727" stroke-linecap="round" stroke-linejoin="round" stroke-miterlimit="10" stroke-width="3.5"/>
    <path id="Path_7" data-name="Path 7" d="M366.5,265.1c0-1.974-1.478-6.228,1.577-7.377" transform="translate(-72.694 -19.015) rotate(-5)" fill="none" stroke="#272727" stroke-linecap="round" stroke-linejoin="round" stroke-miterlimit="10" stroke-width="3.5"/>
    <path id="Path_8" data-name="Path 8" d="M361.3,261.7c0-1.424.4-4.313-2.71-4.823" transform="translate(-80.89 -19.136) rotate(-5)" fill="none" stroke="#272727" stroke-linecap="round" stroke-linejoin="round" stroke-miterlimit="10" stroke-width="3.5"/>
    <path id="Path_9" data-name="Path 9" d="M365.467,262.408c-2.285-.708-6.5-2.025-9.452-5.143-2.935-3.1-5.187-8.464-5.187-10.356" transform="translate(-87.715 -24.049) rotate(-5)" fill="none" stroke="#272727" stroke-linecap="round" stroke-linejoin="round" stroke-miterlimit="10" stroke-width="3.5"/>
    <path id="Path_10" data-name="Path 10" d="M367.615,260.357c0,6.668-7.669,8.812-11.57,14.24-3.173,4.417-4.969,8.538-4.969,13.377" transform="translate(-87.065 -18.156) rotate(-5)" fill="none" stroke="#272727" stroke-linecap="round" stroke-linejoin="round" stroke-miterlimit="10" stroke-width="3.5"/>
    <path id="Path_11" data-name="Path 11" d="M363.315,273.985c0,13.431,1.346,14.282,9.618,26.236,3.061,4.422,12.793,8.881,9.814,16.055-2.824,6.8-12.25-.7-14.773-2.908-9.086-7.959-16.946-25.019-16.946-36.776" transform="translate(-86.035 -5.872) rotate(-5)" fill="none" stroke="#272727" stroke-linecap="round" stroke-linejoin="round" stroke-miterlimit="10" stroke-width="3.5"/>
    <path id="Path_12" data-name="Path 12" d="M367.04,262.708c0,2.523,7.721,4.975,12.843,10.268,10.181,10.522,13.891,44.276-7.959,51.4" transform="translate(-73.121 -17.255) rotate(-5)" fill="none" stroke="#272727" stroke-linecap="round" stroke-linejoin="round" stroke-miterlimit="10" stroke-width="3.5"/>
    <path id="Path_13" data-name="Path 13" d="M381.018,308.232c13.3,6.649,29.735,31.636,32.474,45.331,1.023,5.112,3.021,15.956-4.586,17.476-9.465,1.893-14.282-15.813-18.622-21.239-18.986-23.732-38.65-32.525-36.717-64.652" transform="translate(-82.986 3.996) rotate(-5)" fill="none" stroke="#272727" stroke-linecap="round" stroke-linejoin="round" stroke-miterlimit="10" stroke-width="3.5"/>
    <path id="Path_14" data-name="Path 14" d="M379.838,322.687c3.782.185,11.863.636,13.608-3.152,6.662-14.451-9.643-25.509-17.1-30.015" transform="translate(-61.996 6.13) rotate(-5)" fill="none" stroke="#272727" stroke-linecap="round" stroke-linejoin="round" stroke-miterlimit="10" stroke-width="3.5"/>
    <path id="Path_15" data-name="Path 15" d="M368.748,313.974c-8.149,1.956-21.106-13.063-11.425-15.388" transform="translate(-81.527 16.07) rotate(-5)" fill="none" stroke="#272727" stroke-linecap="round" stroke-linejoin="round" stroke-miterlimit="10" stroke-width="3.5"/>
    <path id="Path_16" data-name="Path 16" d="M372.922,272.519a17.981,17.981,0,0,1,1.341,3.352c1.864,5.592,2.977,10.581-2.682,13.41" transform="translate(-67.63 -8.814) rotate(-5)" fill="none" stroke="#272727" stroke-linecap="round" stroke-linejoin="round" stroke-miterlimit="10" stroke-width="3.5"/>
    <path id="Path_17" data-name="Path 17" d="M373.588,281.408c-1.322,0-2.518,1.173-3.855,1.173" transform="translate(-68.595 -0.659) rotate(-5)" fill="none" stroke="#272727" stroke-linecap="round" stroke-linejoin="round" stroke-miterlimit="10" stroke-width="3.5"/>
    <path id="Path_18" data-name="Path 18" d="M375.968,281.76c-2.727,5.454-2.6,13.2-9.052,16.428" transform="translate(-71.106 -0.119) rotate(-5)" fill="none" stroke="#272727" stroke-linecap="round" stroke-linejoin="round" stroke-miterlimit="10" stroke-width="3.5"/>
    <path id="Path_19" data-name="Path 19" d="M383.166,265.909c-4.946,9.89-22.919,12.04-26.987-.168" transform="translate(-82.043 -13.706) rotate(-5)" fill="none" stroke="#272727" stroke-linecap="round" stroke-linejoin="round" stroke-miterlimit="10" stroke-width="3.5"/>
    <path id="Path_20" data-name="Path 20" d="M362.241,279.648c.583.583.366.208-.335.335-2.8.509-7.8,2.982-9.094,5.578" transform="translate(-83.98 -0.911) rotate(-5)" fill="none" stroke="#272727" stroke-linecap="round" stroke-linejoin="round" stroke-miterlimit="10" stroke-width="3.5"/>
    <path id="Path_21" data-name="Path 21" d="M391.463,317.061c-2.939,5.875-12.248,7.108-17.339,7.108" transform="translate(-61.828 31.121) rotate(-5)" fill="none" stroke="#272727" stroke-linecap="round" stroke-linejoin="round" stroke-miterlimit="10" stroke-width="3.5"/>
    <path id="Path_22" data-name="Path 22" d="M390.666,230.253c2.333,3.1,5.672,15.756,6.186,18.529,2.2,11.856,1.3,26.156-6.2,36.97-9.711,13.994-18.382,12.406-18.55,13.848" transform="translate(-70.494 -46.939) rotate(-5)" fill="none" stroke="#272727" stroke-linecap="round" stroke-linejoin="round" stroke-miterlimit="10" stroke-width="3.5"/>
    <path id="Path_23" data-name="Path 23" d="M418.153,238.777c-1.5-3.27-6.732-8.627-8.944-10.147-9.016-6.193-26.615-11.751-43.2-2.961-20.847,11.048-25.737,28.716-23.627,47.559.91,8.111,3.659,11.128,4.114,15.567.459,4.479-1.55,8.024-.429,12.478,2.091,8.3,6.649,6.571,8.932,11.193,1.253,2.533,1.365,6.3,4.15,7.97" transform="translate(-98.396 -52.8) rotate(-5)" fill="none" stroke="#272727" stroke-linecap="round" stroke-linejoin="round" stroke-miterlimit="10" stroke-width="3.5"/>
    <path id="Path_24" data-name="Path 24" d="M364.141,282.471a14.125,14.125,0,0,1-5.525-.722" transform="translate(-78.585 0.525) rotate(-5)" fill="none" stroke="#272727" stroke-linecap="round" stroke-linejoin="round" stroke-miterlimit="10" stroke-width="3.5"/>
    <path id="Path_25" data-name="Path 25" d="M381.071,283.332c.366-.183.32-.078-.219-.438-2.211-1.474-4.478-2.739-7.228-2.739" transform="translate(-65.188 -2.094) rotate(-5)" fill="none" stroke="#272727" stroke-linecap="round" stroke-linejoin="round" stroke-miterlimit="10" stroke-width="3.5"/>
    <path id="Path_26" data-name="Path 26" d="M374.684,243.754c2.089-.573,2.948,1.284,3.331,2.257.754,1.908-.3,5.63-2.032,5.668C374.9,251.7,373.54,244.068,374.684,243.754Z" transform="translate(-67.502 -33.04) rotate(-5)" fill="#272727"/>
    <path id="Path_27" data-name="Path 27" d="M360.2,245.623c2.089-.573,2.948,1.282,3.331,2.255.752,1.91-.3,5.632-2.034,5.668C360.411,253.569,359.055,245.935,360.2,245.623Z" transform="translate(-80.406 -30.214) rotate(-5)" fill="#272727"/>
    <path id="Path_28" data-name="Path 28" d="M373.863,252.754c.345-.4-8.288.065-8.313.428a4.329,4.329,0,0,0,2.6,1.878C370.791,255.6,372.279,254.592,373.863,252.754Z" transform="translate(-74.635 -24.286) rotate(-5)" fill="#272727"/>
    <path id="Path_29" data-name="Path 29" d="M351.464,256.38c-.042-.259,4.4-1.226,6.723-3.1a18.306,18.306,0,0,0,6.468-12.488" transform="translate(-88.258 -35.812) rotate(-5)" fill="none" stroke="#272727" stroke-linecap="round" stroke-linejoin="round" stroke-miterlimit="10" stroke-width="3.5"/>
    <path id="Path_30" data-name="Path 30" d="M381.926,233.784c-1.986,4.42-4.1,9.679-9.825,12.2" transform="translate(-70.215 -43.757) rotate(-5)" fill="none" stroke="#272727" stroke-linecap="round" stroke-linejoin="round" stroke-miterlimit="10" stroke-width="3.5"/>
    <path id="Path_31" data-name="Path 31" d="M358.493,246.918c1.661-.278,3.944.785,8.635-.147,6.892-1.367,15.183-4.99,18.43-12.9" transform="translate(-82.47 -42.607) rotate(-5)" fill="none" stroke="#272727" stroke-linecap="round" stroke-linejoin="round" stroke-miterlimit="10" stroke-width="3.5"/>
    <path id="Path_32" data-name="Path 32" d="M375.121,233.468c.459,2.75.632,9-1.91,11.842a4.366,4.366,0,0,1-1.215.964" transform="translate(-70.335 -44.034) rotate(-5)" fill="none" stroke="#272727" stroke-linecap="round" stroke-linejoin="round" stroke-miterlimit="10" stroke-width="3.5"/>
    <g id="Group_1" data-name="Group 1" transform="translate(236.547 331.278) rotate(-5)">
      <path id="Path_34" data-name="Path 34" d="M362.945,355.261a24.128,24.128,0,0,0,3.186.461" transform="translate(-281.19 -290.468)" fill="none" stroke="#272727" stroke-linecap="round" stroke-linejoin="round" stroke-miterlimit="10" stroke-width="3.5"/>
      <path id="Path_35" data-name="Path 35" d="M355.527,352.831c2.91,1.266,5.489,2.217,7.709,2.933" transform="translate(-287.9 -292.666)" fill="none" stroke="#272727" stroke-linecap="round" stroke-linejoin="round" stroke-miterlimit="10" stroke-width="3.5"/>
      <path id="Path_36" data-name="Path 36" d="M346.962,348.244c4.045,2.552,7.78,4.634,11.172,6.331" transform="translate(-295.647 -296.815)" fill="none" stroke="#272727" stroke-linecap="round" stroke-linejoin="round" stroke-miterlimit="10" stroke-width="3.5"/>
      <path id="Path_37" data-name="Path 37" d="M320.018,321.24s8.921,16.068,22.283,28.6a205.811,205.811,0,0,0,22.854,18.721" transform="translate(-320.018 -321.24)" fill="none" stroke="#272727" stroke-linecap="round" stroke-linejoin="round" stroke-miterlimit="10" stroke-width="3.5"/>
    </g>
    <g id="Group_2" data-name="Group 2" transform="translate(291.264 320.455) rotate(-5)">
      <path id="Path_38" data-name="Path 38" d="M353.086,322.121c-2.632-2.491-3.952-4.038-3.952-4.038" transform="translate(-349.134 -318.083)" fill="none" stroke="#272727" stroke-linecap="round" stroke-linejoin="round" stroke-miterlimit="10" stroke-width="3.5"/>
      <path id="Path_39" data-name="Path 39" d="M360.474,327.631c-2.272-1.628-4.306-3.2-6.1-4.655" transform="translate(-344.393 -313.657)" fill="none" stroke="#272727" stroke-linecap="round" stroke-linejoin="round" stroke-miterlimit="10" stroke-width="3.5"/>
      <path id="Path_40" data-name="Path 40" d="M425.306,345.461s-15.394,3.441-36.523-4.178a142.023,142.023,0,0,1-27.941-13.659" transform="translate(-338.543 -309.454)" fill="none" stroke="#272727" stroke-linecap="round" stroke-linejoin="round" stroke-miterlimit="10" stroke-width="3.5"/>
    </g>
    <g id="Layer-3" transform="translate(220.379 102.381) rotate(-5)">
      <g id="Group_3" data-name="Group 3" transform="translate(91.681)">
        <path id="Path_41" data-name="Path 41" d="M371.286,200.77V205" transform="translate(-369.17 -200.77)" fill="none" stroke="#272727" stroke-linecap="round" stroke-linejoin="round" stroke-miterlimit="10" stroke-width="3.5"/>
        <path id="Path_42" data-name="Path 42" d="M374.409,201.881h-4.234" transform="translate(-370.175 -199.765)" fill="none" stroke="#272727" stroke-linecap="round" stroke-linejoin="round" stroke-miterlimit="10" stroke-width="3.5"/>
      </g>
      <g id="Group_4" data-name="Group 4" transform="translate(138.688 135.45)">
        <path id="Path_43" data-name="Path 43" d="M395.968,271.891v4.234" transform="translate(-393.852 -271.891)" fill="none" stroke="#272727" stroke-linecap="round" stroke-linejoin="round" stroke-miterlimit="10" stroke-width="3.5"/>
        <path id="Path_44" data-name="Path 44" d="M399.091,273h-4.234" transform="translate(-394.857 -270.885)" fill="none" stroke="#272727" stroke-linecap="round" stroke-linejoin="round" stroke-miterlimit="10" stroke-width="3.5"/>
      </g>
      <g id="Group_5" data-name="Group 5" transform="translate(0 174.047)">
        <path id="Path_45" data-name="Path 45" d="M323.147,292.157v4.234" transform="translate(-321.031 -292.157)" fill="none" stroke="#272727" stroke-linecap="round" stroke-linejoin="round" stroke-miterlimit="10" stroke-width="3.5"/>
        <path id="Path_46" data-name="Path 46" d="M326.27,293.269h-4.234" transform="translate(-322.036 -291.151)" fill="none" stroke="#272727" stroke-linecap="round" stroke-linejoin="round" stroke-miterlimit="10" stroke-width="3.5"/>
      </g>
      <path id="Path_47" data-name="Path 47" d="M326.658,258.084a2.942,2.942,0,1,1,2.942,2.942A2.941,2.941,0,0,1,326.658,258.084Z" transform="translate(-317.855 -151.59)" fill="#272727"/>
      <path id="Path_48" data-name="Path 48" d="M391.7,220.421a5.3,5.3,0,1,1,5.3,5.3A5.3,5.3,0,0,1,391.7,220.421Z" transform="translate(-259.02 -187.786)" fill="#272727"/>
      <path id="Path_49" data-name="Path 49" d="M394.64,317.4a3.237,3.237,0,1,1,3.238,3.238A3.237,3.237,0,0,1,394.64,317.4Z" transform="translate(-256.366 -98.206)" fill="#272727"/>
      <path id="Path_50" data-name="Path 50" d="M343.962,283.011a1.961,1.961,0,1,1,1.962,1.914A1.938,1.938,0,0,1,343.962,283.011Z" transform="translate(-302.204 -128.114)" fill="#272727"/>
      <path id="Path_51" data-name="Path 51" d="M336.795,216.646a5.8,5.8,0,1,1,5.8,5.8A5.8,5.8,0,0,1,336.795,216.646Z" transform="translate(-308.686 -191.657)" fill="#272727"/>

    </g>
  </g>
</svg>
